<svg xmlns="http://www.w3.org/2000/svg" width="33.914" height="28" viewBox="0 0 33.914 28" fill="#fff"><path d="M12.9,28C7.244,28,2.77,27.011.63,25.287l-.042-.034L.55,25.215a1.741,1.741,0,0,1-.457-1.831l.02-.054a1.773,1.773,0,0,1,1.618-1.113A14.614,14.614,0,0,0,5.6,21.685,7.335,7.335,0,0,1,1.73,17.218a1.583,1.583,0,0,1,.552-1.846,1.616,1.616,0,0,1,.482-.246A10.7,10.7,0,0,1,.571,11.2l-.013-.044-.009-.045a1.649,1.649,0,0,1,.764-1.769,1.642,1.642,0,0,1,.782-.221A8.27,8.27,0,0,1,1.47,7.21,7.974,7.974,0,0,1,2.319,1.9l.21-.421a1.173,1.173,0,0,1,1.878-.305l.383.384a18.083,18.083,0,0,0,10.427,5.71A8.307,8.307,0,0,1,17.46,2.476,7.868,7.868,0,0,1,23.077,0h.014a11.253,11.253,0,0,1,4.644,1.512c1-.327,2.2-.833,3.452-1.369a1.577,1.577,0,0,1,1.765.311,1.55,1.55,0,0,1,.336,1.7q-.136.379-.308.744a1.579,1.579,0,0,1,.46.317,1.706,1.706,0,0,1,.424,1.594l-.015.054a6.506,6.506,0,0,1-2.614,3.588C31.031,19.27,22.886,28,12.9,28ZM2.537,24.179C4.554,25.32,8.4,26.011,12.9,26.011a15.529,15.529,0,0,0,11.513-5.238A18.766,18.766,0,0,0,29.249,8.039V7.985a1.172,1.172,0,0,1,.625-1.037A4.223,4.223,0,0,0,31.7,4.926a1.173,1.173,0,0,1-1.13-1.847,6.455,6.455,0,0,0,.443-.7c-1.079.453-2.1.859-2.992,1.129a1.272,1.272,0,0,1-.979-.105A9.69,9.69,0,0,0,23.1,1.99a6.184,6.184,0,0,0-5.948,6.267,1.173,1.173,0,0,1-1.4,1.151C10.344,8.342,7.14,6.745,3.809,3.4a5.872,5.872,0,0,0-.387,3.434,7.257,7.257,0,0,0,1.722,3.339,1.173,1.173,0,0,1-1.184,1.907,5.372,5.372,0,0,1-1.093-.42,9.908,9.908,0,0,0,3.4,3.94,1.173,1.173,0,0,1-.75,2.137A5.273,5.273,0,0,1,3.957,17.4a5.349,5.349,0,0,0,4.268,3.024,1.173,1.173,0,0,1,.349,2.192,14.093,14.093,0,0,1-6.037,1.565Zm0,0" transform="translate(0 0)"/></svg>