<svg xmlns="http://www.w3.org/2000/svg" width="26" height="28.415" viewBox="0 0 26 28.415" fill="#fff"><path d="M26,10.029A10.056,10.056,0,0,0,15.97,0H10.028A10.056,10.056,0,0,0,0,10.029V14.7a9.94,9.94,0,0,0,1.823,5.749,10.063,10.063,0,0,0,4.117,3.4v2.683c0,1.387.777,1.88,1.442,1.88a2.032,2.032,0,0,0,1.413-.7l2.989-2.989h4.187A10.056,10.056,0,0,0,26,14.7ZM15.971,23.063H11.439a.832.832,0,0,0-.589.244L7.618,26.54l-.013.013V23.3a.832.832,0,0,0-.536-.778,8.425,8.425,0,0,1-5.4-7.819V10.028a8.39,8.39,0,0,1,8.364-8.364H15.97a8.391,8.391,0,0,1,8.364,8.364V14.7a8.374,8.374,0,0,1-8.364,8.364Zm0,0" transform="translate(0.001 0)"/><path d="M83.275,123.152a.832.832,0,0,0-1.177,0l-.672.672-2.606-2.606.672-.672a.832.832,0,0,0,0-1.177l-3.153-3.153a.832.832,0,0,0-1.177,0l-2.207,2.207a3.065,3.065,0,0,0,0,4.33l6.935,6.936a3.069,3.069,0,0,0,4.33,0l2.207-2.207a.832.832,0,0,0,0-1.177Zm-.232,5.359a1.4,1.4,0,0,1-1.975,0l-6.935-6.935a1.4,1.4,0,0,1,0-1.975l1.618-1.618,1.975,1.975-.672.672a.832.832,0,0,0,0,1.177l3.783,3.783a.833.833,0,0,0,1.177,0l.672-.672,1.975,1.975Zm0,0" transform="translate(-68.061 -109.536)"/><path d="M223.715,66.355a.832.832,0,0,0,0,1.665,7.133,7.133,0,0,1,7.133,7.133.832.832,0,0,0,1.665,0,8.8,8.8,0,0,0-8.8-8.8Zm0,0" transform="translate(-210.514 -62.673)"/><path d="M227.282,135.852a.832.832,0,1,0,1.665,0,5.237,5.237,0,0,0-5.231-5.231.832.832,0,1,0,0,1.665A3.57,3.57,0,0,1,227.282,135.852Zm0,0" transform="translate(-210.514 -123.372)"/></svg>