<svg xmlns="http://www.w3.org/2000/svg" width="28" height="28.003" viewBox="0 0 28 28.003" fill="#fff"><path d="M28.5,13.437A13.748,13.748,0,0,0,14.5,0,13.748,13.748,0,0,0,.5,13.436v.023a13.215,13.215,0,0,0,4.393,9.77v3.385A1.372,1.372,0,0,0,6.264,28a1.365,1.365,0,0,0,.724-.209l2.72-1.7a14.366,14.366,0,0,0,4.763.81h.021l.269,0A13.748,13.748,0,0,0,28.5,13.474v-.037ZM23.13,21.9a12.028,12.028,0,0,1-8.615,3.363H14.5a12.735,12.735,0,0,1-4.426-.782,1.2,1.2,0,0,0-1.051.108L6.535,26.143V23.03a1.2,1.2,0,0,0-.414-.907,11.572,11.572,0,0,1-3.978-8.661A12.106,12.106,0,0,1,14.483,1.647h.032A12.106,12.106,0,0,1,26.857,13.455,12.029,12.029,0,0,1,23.131,21.9Zm0,0" transform="translate(-0.499 -0.002)"/><path d="M144.311,174.273H132.278a.821.821,0,0,0,0,1.642h12.033a.821.821,0,1,0,0-1.642Zm0,0" transform="translate(-124.295 -164.742)"/><path d="M144.311,240.688H132.278a.821.821,0,0,0,0,1.642h12.033a.821.821,0,1,0,0-1.642Zm0,0" transform="translate(-124.295 -227.524)"/><path d="M250.031,307.1h-5.916a.821.821,0,0,0,0,1.642h5.916a.821.821,0,1,0,0-1.642Zm0,0" transform="translate(-230.014 -290.306)"/></svg>