<svg xmlns="http://www.w3.org/2000/svg" width="28" height="26.789" viewBox="0 0 28 26.789" fill="#fff"><path d="M103.494,152.8h-1.9v-4.824c0-.358-.329-.6-.817-.6s-.817.24-.817.6v5.711a.665.665,0,0,0,.747.606h2.785c.341,0,.589-.314.589-.747s-.242-.747-.589-.747Zm0,0" transform="translate(-94.495 -139.316)"/><path d="M183.544,147.375c-.489,0-.817.24-.817.6v5.711c0,.357.336.606.817.606s.817-.255.817-.606v-5.711C184.361,147.615,184.032,147.375,183.544,147.375Zm0,0" transform="translate(-172.734 -139.315)"/><path d="M231.827,147.374c-.489,0-.817.24-.817.6v2.521l-1.232-2.381c-.3-.572-.541-.738-1.07-.738-.489,0-.817.244-.817.606v5.7c0,.357.336.606.817.606s.817-.255.817-.606v-2.55l1.427,2.669a.925.925,0,0,0,.875.488c.473,0,.817-.255.817-.606v-5.711c0-.358-.328-.6-.817-.6Zm0,0" transform="translate(-215.428 -139.315)"/><path d="M333.968,148.868c.352,0,.606-.318.606-.756a.659.659,0,0,0-.606-.738H330.84a.665.665,0,0,0-.747.606v5.7a.664.664,0,0,0,.747.606h3.128a.659.659,0,0,0,.606-.738c0-.438-.255-.755-.606-.755h-2.24v-1.274h1.089a.638.638,0,0,0,.606-.686.645.645,0,0,0-.606-.7h-1.089v-1.265Zm0,0" transform="translate(-312.042 -139.315)"/><path d="M23.837,3.316A15.594,15.594,0,0,0,14,0,15.594,15.594,0,0,0,4.164,3.316,10.534,10.534,0,0,0,0,11.517a10.464,10.464,0,0,0,3.749,7.849,15.133,15.133,0,0,0,8.232,3.548v3.055a.82.82,0,0,0,.82.82c1.419,0,5.26-1.741,8.5-4.24a20.837,20.837,0,0,0,4.614-4.764A11.168,11.168,0,0,0,28,11.517a10.534,10.534,0,0,0-4.164-8.2ZM20.3,21.249a27.4,27.4,0,0,1-4.7,2.905,15.15,15.15,0,0,1-1.985.812v-2.8a.82.82,0,0,0-.76-.818C6.57,20.89,1.641,16.571,1.641,11.517,1.641,6.071,7.185,1.641,14,1.641S26.36,6.071,26.36,11.517c0,4.187-3.293,7.6-6.056,9.732Zm0,0" transform="translate(0)"/></svg>