<svg xmlns="http://www.w3.org/2000/svg" width="28" height="28.002" viewBox="0 0 28 28.002" fill="#fff"><path d="M28,13.437A13.748,13.748,0,0,0,14,0,13.748,13.748,0,0,0,0,13.436v.023a13.216,13.216,0,0,0,4.393,9.77v3.385A1.372,1.372,0,0,0,5.765,28a1.363,1.363,0,0,0,.724-.209l2.72-1.7a14.371,14.371,0,0,0,4.763.809h.021l.269,0A13.749,13.749,0,0,0,28,13.474v-.037ZM22.63,21.9a12.025,12.025,0,0,1-8.37,3.366l-.245,0H14a12.746,12.746,0,0,1-4.426-.782,1.2,1.2,0,0,0-1.051.108L6.035,26.143V23.03a1.2,1.2,0,0,0-.414-.907,11.571,11.571,0,0,1-3.978-8.661A12.106,12.106,0,0,1,13.983,1.647h.032A12.106,12.106,0,0,1,26.357,13.455,12.027,12.027,0,0,1,22.63,21.9Zm0,0" transform="translate(0.001 -0.002)"/><path d="M95.407,160.845l-4.572,2.493L88.1,160.989a1.207,1.207,0,0,0-1.632.063l-5.78,5.78a1.2,1.2,0,0,0,.85,2.051,1.207,1.207,0,0,0,.577-.148l4.572-2.493,2.742,2.349a1.207,1.207,0,0,0,1.632-.063l5.781-5.781a1.2,1.2,0,0,0-1.431-1.9Zm-5.213,6.509-2.777-2.38a1.058,1.058,0,0,0-1.189-.125l-3.353,1.828,4.451-4.451,2.774,2.379a1.058,1.058,0,0,0,1.189.125l3.361-1.832Zm0,0" transform="translate(-74.76 -151.337)"/></svg>