<svg xmlns="http://www.w3.org/2000/svg" width="28" height="21.393" viewBox="0 0 28 21.393" fill="#fff"><path d="M27.768.872A1.014,1.014,0,0,0,26.634.562L.95,9.844a1.44,1.44,0,0,0-.323,2.543L4.3,14.893a1.156,1.156,0,0,0,1.194.068l7.964-4.2L7.249,15.4a1.164,1.164,0,0,0-.465.928v4.293a1.206,1.206,0,0,0,1.87,1l2.789-1.85,2.743,1.87a1.446,1.446,0,0,0,2.043-.432L27.849,2.048A1.017,1.017,0,0,0,27.768.872ZM14.94,20.169,12.1,18.232a1.153,1.153,0,0,0-1.293-.008L8.425,19.8V16.567l10.96-8.184A1.159,1.159,0,0,0,18.151,6.43L4.983,13.374l-3.105-2.12L25.53,2.707Zm0,0" transform="translate(0.001 -0.5)"/></svg>