<svg xmlns="http://www.w3.org/2000/svg" width="33.597" height="28" viewBox="0 0 33.597 28" fill="#fff"><g transform="translate(0.015 -1.975)"><path d="M14.219,9.985C4.093,15.2,10.828,29.2,23.461,25.549c1.177.457,2.226,1.2,3.367,1.749-.3-.993-.61-1.974-.945-2.952,3.915-2.789,4.774-6.737,3.326-9.981C26.95,9.225,19.735,7.119,14.219,9.985ZM17.757,15.1a1.38,1.38,0,1,1-1.762-1.786A1.389,1.389,0,0,1,17.757,15.1Zm6.684.131h.02a1.4,1.4,0,0,1-2.2.378,2.108,2.108,0,0,1-.481-1.025,1.551,1.551,0,0,1,1.3-1.341,1.407,1.407,0,0,1,1.363,1.988Z" transform="translate(3.712 2.676)"/><path d="M24.355,10.746a10.619,10.619,0,0,0-5.347-6.991h.038C9.678-1.54-1.986,5.844.268,14.552a10.566,10.566,0,0,0,4.561,6.2c-.419,1.193-.818,2.385-1.2,3.586C5,23.618,6.36,22.87,7.724,22.143a15.119,15.119,0,0,0,5.117.727c-2.15-6.169,3.366-12.7,11.513-12.124Zm-8.5-3.581a1.72,1.72,0,0,1,2.308,1.664l0,.017a1.719,1.719,0,1,1-2.311-1.681ZM9.7,9.189a1.725,1.725,0,0,1-2.721.951A1.722,1.722,0,1,1,9.7,9.189Z" transform="translate(0 0)"/></g></svg>